<svg version="1.0" xmlns="http://www.w3.org/2000/svg" width="514.000000ptpx" height="486.000000ptpx" viewBox="0 0 514.000000 486.000000" preserveAspectRatio="xMidYMid meet" transform="rotate(0) scale(1, 1)">

<g transform="translate(0.000000,486.000000) scale(0.100000,-0.100000)" fill="#ffffff" stroke="none">
<path d="M2415 4698 c-71 -3 -167 -13 -212 -22 -654 -129 -1186 -546 -1524&#10;-1191 -142 -272 -241 -626 -269 -968 -13 -168 -14 -1695 0 -1767 25 -130 120&#10;-254 239 -313 63 -30 72 -32 181 -32 110 0 119 2 181 32 124 61 211 171 238&#10;301 8 36 11 307 11 867 0 939 3 975 87 1220 157 453 493 777 925 892 94 25&#10;119 27 283 28 195 0 276 -14 423 -71 253 -99 468 -275 630 -515 75 -112 160&#10;-308 197 -454 47 -184 48 -199 54 -1115 l6 -875 34 -72 c42 -90 114 -161 208&#10;-206 64 -30 75 -32 179 -32 107 0 112 1 186 38 91 45 157 112 202 207 l31 65&#10;0 930 c0 844 -2 941 -18 1045 -50 322 -147 610 -293 875 -249 450 -640 808&#10;-1081 989 -293 120 -554 162 -898 144z"/>
<path d="M2471 3259 c-189 -32 -347 -194 -381 -390 -7 -44 -10 -307 -8 -834&#10;l3 -770 25 -70 c81 -230 326 -360 569 -300 158 38 295 173 335 330 14 51 16&#10;167 16 842 0 534 -4 799 -11 835 -37 178 -204 331 -390 358 -74 11 -85 11&#10;-158 -1z"/>
</g>
</svg>